<svg xmlns="http://www.w3.org/2000/svg" version="1.1" xmlns:xlink="http://www.w3.org/1999/xlink" xmlns:svgjs="http://svgjs.com/svgjs" width="1720" height="1000" preserveAspectRatio="none" viewBox="0 0 1720 1000"><g mask="url(&quot;#SvgjsMask1134&quot;)" fill="none"><rect width="1720" height="1000" x="0" y="0" fill="rgba(0, 156, 255, 1)"></rect><path d="M0,677.397C127.269,664.964,152.683,473.985,262.394,408.293C378.134,338.991,574.859,410.222,641.803,293.102C706.71,179.546,573.096,48.919,540.159,-77.663C511.742,-186.874,519.952,-303.36,461.488,-399.882C396.292,-507.518,316.459,-636.335,191.717,-652.927C65.275,-669.745,-32.151,-546.605,-140.944,-480.012C-221.238,-430.863,-286.711,-370.093,-362.213,-313.86C-462.746,-238.985,-612.285,-211.237,-658.349,-94.656C-704.777,22.845,-661.916,164.869,-593.285,270.944C-528.115,371.671,-396.52,395.189,-297.548,462.994C-194.612,533.515,-124.185,689.529,0,677.397" fill="#007dcc"></path><path d="M1720 1404.575C1821.314 1412.672 1918.6109999999999 1492.5430000000001 2014.012 1457.491 2111.507 1421.67 2166.275 1317.979 2210.929 1224.2 2256.096 1129.343 2300.431 1021.393 2269.468 920.998 2239.257 823.043 2123.2309999999998 786.11 2052.833 711.598 1986.484 641.3720000000001 1959.348 527.4259999999999 1867.974 496.046 1776.25 464.54600000000005 1678.587 516.233 1588.495 552.135 1505.4859999999999 585.2149999999999 1418.165 621.088 1368.237 695.1949999999999 1320.379 766.23 1336.837 858.377 1325.018 943.21 1313.261 1027.594 1276.299 1110.148 1298.982 1192.272 1323.435 1280.806 1372.704 1371.435 1454.716 1412.79 1535.344 1453.4470000000001 1629.988 1397.3809999999999 1720 1404.575" fill="#33b0ff"></path></g><defs><mask id="SvgjsMask1134"><rect width="1720" height="1000" fill="#ffffff"></rect></mask></defs></svg>